<svg xmlns="http://www.w3.org/2000/svg" viewBox="0 0 100 100">
  <defs>
    <!-- Purple gradient for hair -->
    <linearGradient id="purpleGrad" x1="0%" y1="0%" x2="100%" y2="100%">
      <stop offset="0%" style="stop-color:#9333ea;stop-opacity:1" />
      <stop offset="100%" style="stop-color:#7c3aed;stop-opacity:1" />
    </linearGradient>
    <!-- Shield gradient -->
    <linearGradient id="shieldGrad" x1="0%" y1="0%" x2="100%" y2="100%">
      <stop offset="0%" style="stop-color:#3b82f6;stop-opacity:1" />
      <stop offset="50%" style="stop-color:#06b6d4;stop-opacity:1" />
      <stop offset="100%" style="stop-color:#14b8a6;stop-opacity:1" />
    </linearGradient>
  </defs>
  
  <!-- Background circle -->
  <circle cx="50" cy="50" r="48" fill="#1e1b4b"/>
  
  <!-- Woman's Profile (Left Side) -->
  <!-- Head silhouette -->
  <ellipse cx="28" cy="45" rx="15" ry="20" fill="white"/>
  
  <!-- Purple hair flowing back -->
  <path d="M 15 35 Q 10 30, 8 25 Q 6 20, 10 18 Q 15 16, 18 20 L 22 28 Q 25 32, 28 35 Z" 
        fill="url(#purpleGrad)"/>
  <path d="M 18 40 Q 12 38, 8 35 Q 5 32, 7 28 L 15 35 Z" 
        fill="url(#purpleGrad)" opacity="0.8"/>
  
  <!-- Shield (Right Side) -->
  <path d="M 48 20 L 70 30 L 72 50 Q 72 70, 60 78 Q 50 82, 48 80 L 48 20 Z" 
        fill="url(#shieldGrad)" opacity="0.9"/>
  
  <!-- Digital elements in shield -->
  <circle cx="60" cy="40" r="1.5" fill="white" opacity="0.7"/>
  <circle cx="65" cy="50" r="1.5" fill="white" opacity="0.7"/>
  <circle cx="58" cy="55" r="1.5" fill="white" opacity="0.7"/>
  
  <!-- Small padlock in shield -->
  <rect x="57" y="60" width="8" height="8" rx="1" fill="white" opacity="0.8"/>
  <path d="M 59 60 L 59 56 Q 59 54, 61 54 Q 63 54, 63 56 L 63 60" 
        fill="none" stroke="white" stroke-width="1.5" opacity="0.8"/>
</svg>
